<?xml version="1.0" encoding="UTF-8"?>
<svg id="svg" xmlns="http://www.w3.org/2000/svg" viewBox="0 0 228.84 227">
  <defs>
    <style>
      .cls-1 {
        fill: none;
        stroke-width: 2px;
      }
    </style>
  </defs>
  <path id="svgg" class="cls-1" d="M104.45.43C35.32,9.07-10.66,69.89,2.14,135.78c1.97,10.13,8.63,28.92,10.72,30.21.44.27,12.31-9.15,12.23-9.71-.04-.25-1.04-2.74-2.22-5.53-17.88-42.22-1.99-92.87,37.21-118.62,37.55-24.66,83.71-21.84,118.47,7.25,32.17,26.92,43.44,72.6,27.53,111.57l-2.15,5.27,1.48,1.37c.81.75,3.59,2.99,6.17,4.96l4.7,3.6,1.78-3.79c29.58-63.06-3.95-136.72-71.79-157.73C134.63,1.03,115.24-.92,104.45.43M51.65,51.9c-3.68,1.15-6.29,3.81-7.15,7.29-.3,1.2-.39,14.77-.31,44.88l.11,43.16.98,1.95c1.1,2.19,3.54,4.25,5.77,4.87,2.63.73,126.88.55,129.04-.19,2.28-.78,4.44-2.58,5.53-4.62l.87-1.62.12-43.16c.14-49.35.32-46.31-3-49.6-3.88-3.85,2.47-3.53-68.36-3.5-49.83.02-62.29.13-63.6.54M116.1,55.3c1.8.95,2.02,3.06.42,4.11-.91.59-1.13.61-2.01.11-1.98-1.12-2.18-3.32-.39-4.18,1.15-.55,1-.55,1.99-.03M172.76,63.04c2.44.93,2.31-1.4,2.25,40.3-.06,38.4-.09,39.14-1.52,39.55-.59.17-112.41.47-114.86.31-.49-.03-1.33-.49-1.86-1.02l-.96-.96v-76.46l.88-.8c.48-.44,1.14-.9,1.46-1.01,1.07-.39,113.57-.3,114.6.1M73.36,79.96c-2.24,1.51-2.26,1.69-2.28,23.44-.02,21.9-.03,21.81,2.4,23.34,2.78,1.75,7.79.03,8.33-2.85.13-.69.18-5.79.11-11.32-.07-5.53-.03-10.06.07-10.06.11,0,.48.49.83,1.07,10.16,17.07,11.29,17.55,17.73,7.43,1.68-2.64,3.69-5.76,4.45-6.94l1.39-2.14.2,11.56c.16,9.22.31,11.69.75,12.23,2.07,2.5,6.85,2.31,8.95-.36,1.03-1.31,1.35-41.55.35-43.54-1.37-2.71-6.1-3.72-8.38-1.79-.62.52-3.92,5.31-7.33,10.64-3.41,5.33-6.27,9.78-6.35,9.89-.3.38-2.44-2.63-8.06-11.33-6.9-10.67-8.94-12.11-13.17-9.26M124.6,80.47l-1.2,1.01v21.46c0,23.54-.06,22.88,2.32,23.71,2.31.81,17.84-.09,20.82-1.2,21.49-8.01,19.92-39.63-2.26-45.4-1.71-.45-4.38-.6-10.39-.6h-8.09l-1.2,1.01M143.58,90.96c9.97,4.64,9.67,20.98-.46,24.85-.64.25-2.88.54-4.98.66l-3.81.22v-26.68h3.61c2.99,0,3.96.17,5.63.95M40.12,161.79c-2.06,1.67-7.76,6.25-12.67,10.2-9.34,7.49-10.11,8.35-9.11,10.14,1.45,2.62-6.81,2.42,96.66,2.41,103.16,0,95.73.17,97.04-2.28,1.09-2.03.98-2.15-10.73-11.58-3.2-2.58-7.48-6.06-9.51-7.75-5.41-4.49-5.08-4.33-7.51-3.6-3.06.91-134.11.93-137.59.02-1.24-.32-2.38-.59-2.54-.59s-1.98,1.36-4.03,3.03M133.9,170.24c.65.62,1.67,2.08,2.27,3.24,1.77,3.42,2.89,3.24-20.56,3.24-24.7,0-23.48.23-20.82-4.05,2.46-3.95,1.47-3.78,21.07-3.66l16.87.1,1.18,1.13M37.91,196.59c.44,1.12,9.19,7.97,15.17,11.89,41.54,27.23,93.47,24.24,133.35-7.68l5.42-4.34-12.7-.1-12.7-.1-4.23,2.43c-30.45,17.47-65.68,17.39-95.6-.22l-3.74-2.2h-12.55c-6.9,0-12.5.15-12.42.33"/>
</svg>